<svg xmlns="http://www.w3.org/2000/svg" width="50" height="50" viewBox="0 0 50 50" fill="none">
<path d="M44.9022 12.6337C45.1792 12.756 45.4147 12.9562 45.58 13.21C45.7454 13.4637 45.8334 13.76 45.8334 14.0628V35.9378C45.8336 36.241 45.7456 36.5376 45.5801 36.7916C45.4146 37.0456 45.1788 37.2459 44.9015 37.3683C44.6241 37.4906 44.3172 37.5296 44.018 37.4806C43.7189 37.4315 43.4405 37.2965 43.2167 37.092L31.2376 26.1545C31.0766 26.0084 30.9479 25.8303 30.8598 25.6315C30.7718 25.4327 30.7263 25.2177 30.7263 25.0003C30.7263 24.7829 30.7718 24.5679 30.8598 24.3692C30.9479 24.1704 31.0766 23.9922 31.2376 23.8462L43.2167 12.9087C43.4407 12.7042 43.7193 12.5694 44.0186 12.5205C44.3178 12.4717 44.6248 12.511 44.9022 12.6337ZM5.098 37.367C4.82097 37.2446 4.58547 37.0444 4.42014 36.7907C4.25481 36.537 4.16678 36.2407 4.16675 35.9378V14.0628C4.16658 13.7597 4.2546 13.4631 4.42007 13.2091C4.58554 12.9551 4.82132 12.7547 5.09867 12.6324C5.37603 12.51 5.68298 12.471 5.98212 12.5201C6.28125 12.5691 6.55966 12.7041 6.78341 12.9087L18.7626 23.8462C18.9236 23.9922 19.0523 24.1704 19.1403 24.3692C19.2284 24.5679 19.2739 24.7829 19.2739 25.0003C19.2739 25.2177 19.2284 25.4327 19.1403 25.6315C19.0523 25.8303 18.9236 26.0084 18.7626 26.1545L6.78341 37.092C6.55947 37.2964 6.28087 37.4313 5.9816 37.4801C5.68233 37.5289 5.37532 37.4896 5.098 37.367ZM15.3897 25.0003L7.29175 17.6045V32.3962L15.3897 25.0003ZM34.6105 25.0003L42.7084 32.3962V17.6045L34.6084 25.0003H34.6105ZM25.0001 5.72949C25.4145 5.72949 25.8119 5.89411 26.1049 6.18714C26.398 6.48016 26.5626 6.87759 26.5626 7.29199V9.37533C26.5626 9.78973 26.398 10.1872 26.1049 10.4802C25.8119 10.7732 25.4145 10.9378 25.0001 10.9378C24.5857 10.9378 24.1883 10.7732 23.8952 10.4802C23.6022 10.1872 23.4376 9.78973 23.4376 9.37533V7.29199C23.4376 6.87759 23.6022 6.48016 23.8952 6.18714C24.1883 5.89411 24.5857 5.72949 25.0001 5.72949ZM25.0001 14.0628C25.4145 14.0628 25.8119 14.2274 26.1049 14.5205C26.398 14.8135 26.5626 15.2109 26.5626 15.6253V17.7087C26.5626 18.1231 26.398 18.5205 26.1049 18.8135C25.8119 19.1065 25.4145 19.2712 25.0001 19.2712C24.5857 19.2712 24.1883 19.1065 23.8952 18.8135C23.6022 18.5205 23.4376 18.1231 23.4376 17.7087V15.6253C23.4376 15.2109 23.6022 14.8135 23.8952 14.5205C24.1883 14.2274 24.5857 14.0628 25.0001 14.0628ZM25.0001 30.7295C25.4145 30.7295 25.8119 30.8941 26.1049 31.1871C26.398 31.4802 26.5626 31.8776 26.5626 32.292V34.3753C26.5626 34.7897 26.398 35.1872 26.1049 35.4802C25.8119 35.7732 25.4145 35.9378 25.0001 35.9378C24.5857 35.9378 24.1883 35.7732 23.8952 35.4802C23.6022 35.1872 23.4376 34.7897 23.4376 34.3753V32.292C23.4376 31.8776 23.6022 31.4802 23.8952 31.1871C24.1883 30.8941 24.5857 30.7295 25.0001 30.7295ZM25.0001 39.0628C25.4145 39.0628 25.8119 39.2274 26.1049 39.5205C26.398 39.8135 26.5626 40.2109 26.5626 40.6253V42.7087C26.5626 43.1231 26.398 43.5205 26.1049 43.8135C25.8119 44.1065 25.4145 44.2712 25.0001 44.2712C24.5857 44.2712 24.1883 44.1065 23.8952 43.8135C23.6022 43.5205 23.4376 43.1231 23.4376 42.7087V40.6253C23.4376 40.2109 23.6022 39.8135 23.8952 39.5205C24.1883 39.2274 24.5857 39.0628 25.0001 39.0628ZM25.0001 22.3962C25.4145 22.3962 25.8119 22.5608 26.1049 22.8538C26.398 23.1468 26.5626 23.5443 26.5626 23.9587V26.042C26.5626 26.4564 26.398 26.8538 26.1049 27.1468C25.8119 27.4399 25.4145 27.6045 25.0001 27.6045C24.5857 27.6045 24.1883 27.4399 23.8952 27.1468C23.6022 26.8538 23.4376 26.4564 23.4376 26.042V23.9587C23.4376 23.5443 23.6022 23.1468 23.8952 22.8538C24.1883 22.5608 24.5857 22.3962 25.0001 22.3962Z" fill="white"/>
</svg>