<svg xmlns="http://www.w3.org/2000/svg" width="34" height="26" viewBox="0 0 34 26" fill="none">
<path d="M7.03566 1.18169C7.03566 0.868288 6.91214 0.56772 6.69228 0.34611C6.47242 0.1245 6.17422 0 5.8633 0C5.55236 0 5.25417 0.1245 5.03431 0.34611C4.81445 0.56772 4.69093 0.868288 4.69093 1.18169V21.9629L2.00388 19.2521C1.78374 19.0302 1.48517 18.9056 1.17384 18.9056C0.862521 18.9056 0.563949 19.0302 0.343811 19.2521C0.123672 19.474 7.33501e-09 19.775 0 20.0888C-7.33501e-09 20.4026 0.123672 20.7035 0.343811 20.9254L5.03326 25.6498L5.04968 25.6664C5.26979 25.8827 5.5658 26.0026 5.87323 26C6.18065 25.9973 6.47458 25.8723 6.69098 25.6522L11.3804 20.9254C11.4894 20.8157 11.5759 20.6854 11.635 20.542C11.694 20.3986 11.7245 20.2449 11.7246 20.0896C11.7247 19.9343 11.6945 19.7806 11.6356 19.6371C11.5768 19.4936 11.4905 19.3632 11.3816 19.2533C11.2728 19.1435 11.1435 19.0563 11.0012 18.9967C10.859 18.9372 10.7064 18.9065 10.5524 18.9064C10.3984 18.9063 10.2458 18.9368 10.1034 18.9961C9.96109 19.0554 9.83171 19.1424 9.72271 19.2521L7.03566 21.9629V1.18169ZM15.2422 3.54508C15.2422 3.23167 15.3657 2.93111 15.5856 2.7095C15.8054 2.48789 16.1036 2.36339 16.4146 2.36339H32.8276C33.1386 2.36339 33.4368 2.48789 33.6566 2.7095C33.8765 2.93111 34 3.23167 34 3.54508C34 3.85848 33.8765 4.15905 33.6566 4.38066C33.4368 4.60227 33.1386 4.72677 32.8276 4.72677H16.4146C16.1036 4.72677 15.8054 4.60227 15.5856 4.38066C15.3657 4.15905 15.2422 3.85848 15.2422 3.54508ZM16.4146 9.45354C16.1036 9.45354 15.8054 9.57804 15.5856 9.79965C15.3657 10.0213 15.2422 10.3218 15.2422 10.6352C15.2422 10.9486 15.3657 11.2492 15.5856 11.4708C15.8054 11.6924 16.1036 11.8169 16.4146 11.8169H28.1382C28.4491 11.8169 28.7473 11.6924 28.9672 11.4708C29.187 11.2492 29.3106 10.9486 29.3106 10.6352C29.3106 10.3218 29.187 10.0213 28.9672 9.79965C28.7473 9.57804 28.4491 9.45354 28.1382 9.45354H16.4146ZM16.4146 16.5437C16.1036 16.5437 15.8054 16.6682 15.5856 16.8898C15.3657 17.1114 15.2422 17.412 15.2422 17.7254C15.2422 18.0388 15.3657 18.3394 15.5856 18.561C15.8054 18.7826 16.1036 18.9071 16.4146 18.9071H23.4487C23.7597 18.9071 24.0579 18.7826 24.2777 18.561C24.4976 18.3394 24.6211 18.0388 24.6211 17.7254C24.6211 17.412 24.4976 17.1114 24.2777 16.8898C24.0579 16.6682 23.7597 16.5437 23.4487 16.5437H16.4146ZM16.4146 23.6339C16.1036 23.6339 15.8054 23.7584 15.5856 23.98C15.3657 24.2016 15.2422 24.5021 15.2422 24.8155C15.2422 25.129 15.3657 25.4295 15.5856 25.6511C15.8054 25.8727 16.1036 25.9972 16.4146 25.9972H18.7593C19.0702 25.9972 19.3684 25.8727 19.5883 25.6511C19.8081 25.4295 19.9316 25.129 19.9316 24.8155C19.9316 24.5021 19.8081 24.2016 19.5883 23.98C19.3684 23.7584 19.0702 23.6339 18.7593 23.6339H16.4146Z" fill="white"/>
</svg>