<svg xmlns="http://www.w3.org/2000/svg" width="69" height="69" viewBox="0 0 69 69" fill="none">
<g clip-path="url(#clip0_592_967)">
<path d="M13.5654 10.6816C13.5654 7.86372 14.6848 5.16121 16.6774 3.16863C18.67 1.17606 21.3725 0.0566406 24.1904 0.0566406C27.0084 0.0566406 29.7109 1.17606 31.7034 3.16863C33.696 5.16121 34.8154 7.86372 34.8154 10.6816C34.8154 7.86372 35.9348 5.16121 37.9274 3.16863C39.92 1.17606 42.6225 0.0566406 45.4404 0.0566406C48.2584 0.0566406 50.9609 1.17606 52.9534 3.16863C54.946 5.16121 56.0654 7.86372 56.0654 10.6816V10.7071C56.0654 11.0046 56.0654 11.8546 55.9039 12.8066H64.5654C65.6926 12.8066 66.7736 13.2544 67.5706 14.0514C68.3677 14.8485 68.8154 15.9295 68.8154 17.0566V25.5566C68.8154 26.6838 68.3677 27.7648 67.5706 28.5618C66.7736 29.3589 65.6926 29.8066 64.5654 29.8066V61.6816C64.5654 63.3724 63.8938 64.9939 62.6982 66.1894C61.5027 67.385 59.8812 68.0566 58.1904 68.0566H11.4404C9.74967 68.0566 8.12817 67.385 6.93262 66.1894C5.73708 64.9939 5.06543 63.3724 5.06543 61.6816V29.8066C3.93826 29.8066 2.85726 29.3589 2.06023 28.5618C1.2632 27.7648 0.81543 26.6838 0.81543 25.5566V17.0566C0.81543 15.9295 1.2632 14.8485 2.06023 14.0514C2.85726 13.2544 3.93826 12.8066 5.06543 12.8066H13.7269C13.6147 12.1125 13.5607 11.4103 13.5654 10.7071V10.6816ZM18.1044 12.8066H30.5654V10.6816C30.5654 9.84446 30.4005 9.01548 30.0802 8.24203C29.7598 7.46858 29.2902 6.76581 28.6982 6.17383C28.1063 5.58186 27.4035 5.11228 26.63 4.79191C25.8566 4.47153 25.0276 4.30664 24.1904 4.30664C23.3533 4.30664 22.5243 4.47153 21.7508 4.79191C20.9774 5.11228 20.2746 5.58186 19.6826 6.17383C19.0907 6.76581 18.6211 7.46858 18.3007 8.24203C17.9803 9.01548 17.8154 9.84446 17.8154 10.6816C17.8154 11.0429 17.8239 11.8461 18.0067 12.5091C18.0322 12.6105 18.0649 12.7099 18.1044 12.8066ZM39.0654 12.8066H51.5264C51.5655 12.7097 51.5982 12.6103 51.6242 12.5091C51.8069 11.8461 51.8154 11.0429 51.8154 10.6816C51.8154 8.99089 51.1438 7.36938 49.9482 6.17384C48.7527 4.97829 47.1312 4.30664 45.4404 4.30664C43.7497 4.30664 42.1282 4.97829 40.9326 6.17384C39.7371 7.36938 39.0654 8.99089 39.0654 10.6816V12.8066ZM5.06543 17.0566V25.5566H30.5654V17.0566H5.06543ZM39.0654 17.0566V25.5566H64.5654V17.0566H39.0654ZM60.3154 29.8066H39.0654V63.8066H58.1904C58.754 63.8066 59.2945 63.5828 59.693 63.1842C60.0915 62.7857 60.3154 62.2452 60.3154 61.6816V29.8066ZM30.5654 63.8066V29.8066H9.31543V61.6816C9.31543 62.2452 9.53931 62.7857 9.93783 63.1842C10.3363 63.5828 10.8768 63.8066 11.4404 63.8066H30.5654Z" fill="white"/>
</g>
<defs>
<clipPath id="clip0_592_967">
<rect width="68" height="68" fill="white" transform="translate(0.81543 0.0566406)"/>
</clipPath>
</defs>
</svg>