<svg width="287" height="65" viewBox="0 0 287 65" fill="none" xmlns="http://www.w3.org/2000/svg">
<path d="M89.288 29V12.92L89.648 13.304H83.24V12.2H96.56V13.304H90.152L90.512 12.92V29H89.288ZM103.268 29.096C102.004 29.096 100.884 28.824 99.9082 28.28C98.9482 27.736 98.1882 26.984 97.6282 26.024C97.0842 25.064 96.8122 23.968 96.8122 22.736C96.8122 21.488 97.0682 20.392 97.5802 19.448C98.1082 18.488 98.8282 17.736 99.7402 17.192C100.652 16.648 101.676 16.376 102.812 16.376C103.948 16.376 104.964 16.64 105.86 17.168C106.772 17.696 107.484 18.44 107.996 19.4C108.524 20.344 108.788 21.44 108.788 22.688C108.788 22.736 108.78 22.792 108.764 22.856C108.764 22.904 108.764 22.96 108.764 23.024H97.7002V22.088H108.116L107.636 22.544C107.652 21.568 107.444 20.696 107.012 19.928C106.596 19.144 106.028 18.536 105.308 18.104C104.588 17.656 103.756 17.432 102.812 17.432C101.884 17.432 101.052 17.656 100.316 18.104C99.5962 18.536 99.0282 19.144 98.6122 19.928C98.1962 20.696 97.9882 21.576 97.9882 22.568V22.784C97.9882 23.808 98.2122 24.72 98.6602 25.52C99.1242 26.304 99.7562 26.92 100.556 27.368C101.356 27.8 102.268 28.016 103.292 28.016C104.092 28.016 104.836 27.872 105.524 27.584C106.228 27.296 106.82 26.856 107.3 26.264L107.996 27.056C107.452 27.728 106.764 28.24 105.932 28.592C105.116 28.928 104.228 29.096 103.268 29.096ZM119.021 29.096C117.917 29.096 116.917 28.84 116.021 28.328C115.141 27.816 114.437 27.088 113.909 26.144C113.397 25.184 113.141 24.048 113.141 22.736C113.141 21.424 113.397 20.296 113.909 19.352C114.437 18.392 115.141 17.656 116.021 17.144C116.917 16.632 117.917 16.376 119.021 16.376C120.205 16.376 121.261 16.648 122.189 17.192C123.133 17.72 123.869 18.464 124.397 19.424C124.941 20.384 125.213 21.488 125.213 22.736C125.213 23.984 124.941 25.088 124.397 26.048C123.869 27.008 123.133 27.76 122.189 28.304C121.261 28.832 120.205 29.096 119.021 29.096ZM112.733 33.656V16.472H113.885V20.576L113.693 22.76L113.933 24.944V33.656H112.733ZM118.949 28.016C119.909 28.016 120.773 27.8 121.541 27.368C122.309 26.92 122.909 26.296 123.341 25.496C123.789 24.696 124.013 23.776 124.013 22.736C124.013 21.68 123.789 20.76 123.341 19.976C122.909 19.176 122.309 18.56 121.541 18.128C120.773 17.68 119.909 17.456 118.949 17.456C117.989 17.456 117.125 17.68 116.357 18.128C115.605 18.56 115.005 19.176 114.557 19.976C114.125 20.76 113.909 21.68 113.909 22.736C113.909 23.776 114.125 24.696 114.557 25.496C115.005 26.296 115.605 26.92 116.357 27.368C117.125 27.8 117.989 28.016 118.949 28.016ZM135.427 29.096C134.323 29.096 133.323 28.84 132.427 28.328C131.547 27.816 130.843 27.088 130.315 26.144C129.803 25.184 129.547 24.048 129.547 22.736C129.547 21.424 129.803 20.296 130.315 19.352C130.843 18.392 131.547 17.656 132.427 17.144C133.323 16.632 134.323 16.376 135.427 16.376C136.611 16.376 137.667 16.648 138.595 17.192C139.539 17.72 140.275 18.464 140.803 19.424C141.347 20.384 141.619 21.488 141.619 22.736C141.619 23.984 141.347 25.088 140.803 26.048C140.275 27.008 139.539 27.76 138.595 28.304C137.667 28.832 136.611 29.096 135.427 29.096ZM129.139 33.656V16.472H130.291V20.576L130.099 22.76L130.339 24.944V33.656H129.139ZM135.355 28.016C136.315 28.016 137.179 27.8 137.947 27.368C138.715 26.92 139.315 26.296 139.747 25.496C140.195 24.696 140.419 23.776 140.419 22.736C140.419 21.68 140.195 20.76 139.747 19.976C139.315 19.176 138.715 18.56 137.947 18.128C137.179 17.68 136.315 17.456 135.355 17.456C134.395 17.456 133.531 17.68 132.763 18.128C132.011 18.56 131.411 19.176 130.963 19.976C130.531 20.76 130.315 21.68 130.315 22.736C130.315 23.776 130.531 24.696 130.963 25.496C131.411 26.296 132.011 26.92 132.763 27.368C133.531 27.8 134.395 28.016 135.355 28.016ZM145.522 29V16.472H146.722V27.152L155.65 16.472H156.706V29H155.506V18.32L146.578 29H145.522ZM164.161 29V17.192L164.497 17.552H159.265V16.472H170.257V17.552H165.025L165.361 17.192V29H164.161ZM177.232 29.096C176.032 29.096 174.96 28.824 174.016 28.28C173.088 27.736 172.344 26.984 171.784 26.024C171.24 25.064 170.968 23.968 170.968 22.736C170.968 21.488 171.24 20.392 171.784 19.448C172.344 18.488 173.088 17.736 174.016 17.192C174.96 16.648 176.032 16.376 177.232 16.376C178.432 16.376 179.504 16.648 180.448 17.192C181.392 17.736 182.136 18.488 182.68 19.448C183.224 20.392 183.496 21.488 183.496 22.736C183.496 23.968 183.224 25.064 182.68 26.024C182.136 26.984 181.392 27.736 180.448 28.28C179.504 28.824 178.432 29.096 177.232 29.096ZM177.232 28.016C178.192 28.016 179.056 27.8 179.824 27.368C180.592 26.92 181.192 26.296 181.624 25.496C182.056 24.696 182.272 23.776 182.272 22.736C182.272 21.68 182.056 20.76 181.624 19.976C181.192 19.176 180.592 18.56 179.824 18.128C179.056 17.68 178.192 17.456 177.232 17.456C176.272 17.456 175.408 17.68 174.64 18.128C173.888 18.56 173.288 19.176 172.84 19.976C172.408 20.76 172.192 21.68 172.192 22.736C172.192 23.776 172.408 24.696 172.84 25.496C173.288 26.296 173.888 26.92 174.64 27.368C175.408 27.8 176.272 28.016 177.232 28.016ZM193.717 29.096C192.613 29.096 191.613 28.84 190.717 28.328C189.837 27.816 189.133 27.088 188.605 26.144C188.093 25.184 187.837 24.048 187.837 22.736C187.837 21.424 188.093 20.296 188.605 19.352C189.133 18.392 189.837 17.656 190.717 17.144C191.613 16.632 192.613 16.376 193.717 16.376C194.901 16.376 195.957 16.648 196.885 17.192C197.829 17.72 198.565 18.464 199.093 19.424C199.637 20.384 199.909 21.488 199.909 22.736C199.909 23.984 199.637 25.088 199.093 26.048C198.565 27.008 197.829 27.76 196.885 28.304C195.957 28.832 194.901 29.096 193.717 29.096ZM187.429 33.656V16.472H188.581V20.576L188.389 22.76L188.629 24.944V33.656H187.429ZM193.645 28.016C194.605 28.016 195.469 27.8 196.237 27.368C197.005 26.92 197.605 26.296 198.036 25.496C198.485 24.696 198.709 23.776 198.709 22.736C198.709 21.68 198.485 20.76 198.036 19.976C197.605 19.176 197.005 18.56 196.237 18.128C195.469 17.68 194.605 17.456 193.645 17.456C192.685 17.456 191.821 17.68 191.053 18.128C190.301 18.56 189.701 19.176 189.253 19.976C188.821 20.76 188.605 21.68 188.605 22.736C188.605 23.776 188.821 24.696 189.253 25.496C189.701 26.296 190.301 26.92 191.053 27.368C191.821 27.8 192.685 28.016 193.645 28.016ZM203.811 29V16.472H205.011V27.152L213.939 16.472H214.995V29H213.795V18.32L204.867 29H203.811ZM228.306 29V24.392L228.57 24.68H224.13C222.562 24.68 221.338 24.344 220.458 23.672C219.594 22.984 219.162 21.976 219.162 20.648C219.162 19.24 219.634 18.192 220.578 17.504C221.522 16.816 222.77 16.472 224.322 16.472H229.41V29H228.306ZM219.09 29L222.57 24.176H223.842L220.41 29H219.09ZM228.306 24.056V17.168L228.57 17.528H224.394C223.114 17.528 222.122 17.776 221.418 18.272C220.714 18.768 220.362 19.576 220.362 20.696C220.362 22.744 221.658 23.768 224.25 23.768H228.57L228.306 24.056ZM85.592 53V40.472H86.792V46.184H95.288V40.472H96.488V53H95.288V47.24H86.792V53H85.592ZM106.854 53.096C105.59 53.096 104.47 52.824 103.494 52.28C102.534 51.736 101.774 50.984 101.214 50.024C100.67 49.064 100.398 47.968 100.398 46.736C100.398 45.488 100.654 44.392 101.166 43.448C101.694 42.488 102.414 41.736 103.326 41.192C104.238 40.648 105.262 40.376 106.398 40.376C107.534 40.376 108.55 40.64 109.446 41.168C110.358 41.696 111.07 42.44 111.582 43.4C112.11 44.344 112.374 45.44 112.374 46.688C112.374 46.736 112.366 46.792 112.35 46.856C112.35 46.904 112.35 46.96 112.35 47.024H101.286V46.088H111.702L111.222 46.544C111.238 45.568 111.03 44.696 110.598 43.928C110.182 43.144 109.614 42.536 108.894 42.104C108.174 41.656 107.342 41.432 106.398 41.432C105.47 41.432 104.638 41.656 103.902 42.104C103.182 42.536 102.614 43.144 102.198 43.928C101.782 44.696 101.574 45.576 101.574 46.568V46.784C101.574 47.808 101.798 48.72 102.246 49.52C102.71 50.304 103.342 50.92 104.142 51.368C104.942 51.8 105.854 52.016 106.878 52.016C107.678 52.016 108.422 51.872 109.11 51.584C109.814 51.296 110.406 50.856 110.886 50.264L111.582 51.056C111.038 51.728 110.35 52.24 109.518 52.592C108.702 52.928 107.814 53.096 106.854 53.096ZM124.558 52.424V41.552H118.03L117.886 44.672C117.854 45.552 117.798 46.432 117.718 47.312C117.638 48.176 117.51 48.976 117.334 49.712C117.158 50.432 116.91 51.016 116.59 51.464C116.286 51.912 115.886 52.16 115.39 52.208L114.19 51.944C114.702 51.976 115.118 51.792 115.438 51.392C115.758 50.976 116.006 50.416 116.182 49.712C116.358 49.008 116.486 48.216 116.566 47.336C116.662 46.44 116.734 45.528 116.782 44.6L116.95 40.472H125.758V52.424H124.558ZM113.638 56.12V51.944H127.774V56.12H126.646V53H114.79V56.12H113.638ZM131.319 53V40.472H136.599C137.975 40.472 139.063 40.744 139.863 41.288C140.663 41.832 141.063 42.624 141.063 43.664C141.063 44.688 140.671 45.464 139.887 45.992C139.119 46.52 138.119 46.784 136.887 46.784L137.223 46.424C138.695 46.424 139.775 46.696 140.463 47.24C141.151 47.784 141.495 48.584 141.495 49.64C141.495 50.712 141.103 51.544 140.319 52.136C139.551 52.712 138.359 53 136.743 53H131.319ZM132.495 52.016H136.719C137.887 52.016 138.775 51.824 139.383 51.44C139.991 51.056 140.295 50.44 140.295 49.592C140.295 48.728 140.023 48.104 139.479 47.72C138.951 47.32 138.095 47.12 136.911 47.12H132.495V52.016ZM132.495 46.184H136.527C137.583 46.184 138.399 45.984 138.975 45.584C139.567 45.184 139.863 44.592 139.863 43.808C139.863 43.024 139.567 42.44 138.975 42.056C138.399 41.656 137.583 41.456 136.527 41.456H132.495V46.184ZM145.756 53V40.472H146.956V51.152L155.884 40.472H156.94V53H155.74V42.32L146.812 53H145.756ZM176.923 53L172.411 46.736L173.419 46.16L178.363 53H176.923ZM169.387 47.192V46.16H173.275V47.192H169.387ZM173.515 46.856L172.387 46.664L176.683 40.472H178.003L173.515 46.856ZM161.491 53H160.027L164.995 46.16L166.003 46.736L161.491 53ZM169.795 53H168.595V40.472H169.795V53ZM168.979 47.192H165.115V46.16H168.979V47.192ZM164.899 46.856L160.411 40.472H161.731L166.027 46.664L164.899 46.856ZM181.475 53V40.472H182.675V51.152L191.603 40.472H192.659V53H191.459V42.32L182.531 53H181.475ZM197.834 53V40.472H199.01L204.938 50.384H204.41L210.362 40.472H211.466V53H210.362V41.912L210.602 42.008L204.914 51.392H204.362L198.65 41.936L198.938 41.888V53H197.834ZM221.647 53.096C220.447 53.096 219.375 52.824 218.431 52.28C217.503 51.736 216.759 50.984 216.199 50.024C215.655 49.064 215.383 47.968 215.383 46.736C215.383 45.488 215.655 44.392 216.199 43.448C216.759 42.488 217.503 41.736 218.431 41.192C219.375 40.648 220.447 40.376 221.647 40.376C222.847 40.376 223.919 40.648 224.863 41.192C225.807 41.736 226.551 42.488 227.095 43.448C227.639 44.392 227.911 45.488 227.911 46.736C227.911 47.968 227.639 49.064 227.095 50.024C226.551 50.984 225.807 51.736 224.863 52.28C223.919 52.824 222.847 53.096 221.647 53.096ZM221.647 52.016C222.607 52.016 223.471 51.8 224.239 51.368C225.007 50.92 225.607 50.296 226.039 49.496C226.471 48.696 226.687 47.776 226.687 46.736C226.687 45.68 226.471 44.76 226.039 43.976C225.607 43.176 225.007 42.56 224.239 42.128C223.471 41.68 222.607 41.456 221.647 41.456C220.687 41.456 219.823 41.68 219.055 42.128C218.303 42.56 217.703 43.176 217.255 43.976C216.823 44.76 216.607 45.68 216.607 46.736C216.607 47.776 216.823 48.696 217.255 49.496C217.703 50.296 218.303 50.92 219.055 51.368C219.823 51.8 220.687 52.016 221.647 52.016ZM236.883 53.096C235.667 53.096 234.579 52.824 233.619 52.28C232.675 51.736 231.923 50.984 231.363 50.024C230.819 49.064 230.547 47.968 230.547 46.736C230.547 45.488 230.819 44.384 231.363 43.424C231.923 42.464 232.675 41.72 233.619 41.192C234.579 40.648 235.667 40.376 236.883 40.376C237.891 40.376 238.803 40.568 239.619 40.952C240.451 41.336 241.123 41.912 241.635 42.68L240.747 43.328C240.299 42.688 239.739 42.216 239.067 41.912C238.395 41.608 237.667 41.456 236.883 41.456C235.907 41.456 235.027 41.68 234.243 42.128C233.475 42.56 232.867 43.176 232.419 43.976C231.987 44.76 231.771 45.68 231.771 46.736C231.771 47.792 231.987 48.72 232.419 49.52C232.867 50.304 233.475 50.92 234.243 51.368C235.027 51.8 235.907 52.016 236.883 52.016C237.667 52.016 238.395 51.864 239.067 51.56C239.739 51.256 240.299 50.784 240.747 50.144L241.635 50.792C241.123 51.56 240.451 52.136 239.619 52.52C238.803 52.904 237.891 53.096 236.883 53.096ZM247.177 53V41.192L247.513 41.552H242.281V40.472H253.273V41.552H248.041L248.377 41.192V53H247.177ZM255.842 53V40.472H257.042V51.152L265.97 40.472H267.026V53H265.826V42.32L256.898 53H255.842Z" fill="white"/>
<path fill-rule="evenodd" clip-rule="evenodd" d="M1.19537 1L1.69537 1L1.69537 0H0.195367L0.195367 1L0.195367 2.57235H1.19537L1.19537 1ZM4.69537 1L7.69537 1L7.69537 0H4.69537L4.69537 1ZM10.6954 1L13.6954 1V0H10.6954V1ZM16.6954 1L19.6954 1V0H16.6954V1ZM22.6954 1L25.6954 1V2.22928e-06L22.6954 1.96701e-06V1ZM28.6954 1L31.6954 1V2.75382e-06L28.6954 2.49155e-06V1ZM34.6954 1L37.6954 1V3.27835e-06L34.6954 3.01609e-06V1ZM40.6954 1L43.6954 1V3.80289e-06L40.6954 3.54062e-06V1ZM46.6954 1L49.6954 1V4.32743e-06L46.6954 4.06516e-06V1ZM52.6954 1L55.6954 1V4.85197e-06L52.6954 4.5897e-06V1ZM58.6954 1.00001L61.6954 1.00001V5.3765e-06L58.6954 5.11423e-06V1.00001ZM64.6954 1.00001L65.4189 1V2.57235H66.4189V1L66.1954 1.00001V5.7699e-06L64.6954 5.63877e-06V1.00001ZM44.6684 0.777022L45.1011 1.52444L65.4562 36.6833L65.7346 37.1641H66.4189V40.3088H65.4189V37.4338H65.0235H56.2712V64.0739H55.2712V63.8941H52.6954V62.8941H55.2712V36.3169H56.2712V36.4338H64.1563L44.6684 2.77288L25.4934 35.8933H40.7103L34.0039 24.4877L34.8659 23.9809L42.0153 36.1399L42.4583 36.8933H41.5843H32.8319V64.0739H31.8319V55H30.3V54H31.8319L31.8319 36.8933H24.9144L24.746 37.1843L23.8805 36.6833L44.2357 1.52444L44.6684 0.777022ZM21.6602 1.52152L21.2291 0.78849L20.7981 1.52152L0.443007 36.1399L0 36.8933H0.874021H9.37147V59.7562H9.62635V64.0739H10.6263L10.6263 36.3169H10.3715V35.8933H9.87147H1.74804L21.2291 2.76142L30.9757 19.3376L31.8377 18.8307L21.6602 1.52152ZM43.0014 45.4973L43 44.9973L42 45L42.0014 45.5L42.0043 46.5981L42.0057 47.098L43.0057 47.0953L43.0043 46.5953L43.0014 45.4973ZM43.0103 48.7915L43.0089 48.2915L42.0089 48.2942L42.0103 48.7942L42.0162 50.9903L42.0176 51.4903L43.0176 51.4876L43.0162 50.9876L43.0103 48.7915ZM43.0222 53.1837L43.0208 52.6837L42.0208 52.6864L42.0222 53.1864L42.0281 55.3825L42.0295 55.8825L43.0295 55.8798L43.0281 55.3798L43.0222 53.1837ZM43.0341 57.5759L43.0327 57.0759L42.0327 57.0786L42.0341 57.5786L42.04 59.7747L42.0414 60.2747L43.0414 60.272L43.04 59.772L43.0341 57.5759ZM43.0459 61.9681L43.0446 61.4681L42.0446 61.4708L42.046 61.9708L42.0485 62.8941H40.6954V63.8941H43.6954V62.8941H43.0485L43.0459 61.9681ZM23.9511 44.9974L23.9524 45.4974L23.9554 46.5954L23.9568 47.0954L22.9568 47.0981L22.9554 46.5981L22.9524 45.5001L22.9511 45.0001L23.9511 44.9974ZM23.96 48.2915L23.9613 48.7915L23.9673 50.9876L23.9686 51.4876L22.9687 51.4903L22.9673 50.9903L22.9613 48.7942L22.96 48.2942L23.96 48.2915ZM23.9719 52.6837L23.9732 53.1837L23.9792 55.3798L23.9805 55.8798L22.9805 55.8825L22.9792 55.3825L22.9732 53.1864L22.9719 52.6864L23.9719 52.6837ZM23.9838 57.0759L23.9851 57.5759L23.9911 59.772L23.9924 60.272L22.9924 60.2748L22.9911 59.7748L22.9851 57.5787L22.9838 57.0787L23.9838 57.0759ZM23.9957 61.4682L23.997 61.9682L23.9995 62.8941H25.6954V63.8941H22.6954V62.8941H22.9995L22.997 61.9709L22.9957 61.4709L23.9957 61.4682ZM24 55H24.9V54H24V55ZM26.7 55H28.5V54H26.7L26.7 55ZM33.9 55H35.7V54H33.9V55ZM37.5 55H39.3L39.3 54H37.5V55ZM41.1 55H42V54H41.1V55ZM65.4189 8.86176V5.71706H66.4189V8.86176H65.4189ZM65.4189 15.1512V12.0065H66.4189V15.1512H65.4189ZM65.4189 21.4406V18.2959H66.4189V21.4406H65.4189ZM65.4189 27.73V24.5853H66.4189V27.73H65.4189ZM65.4189 34.0194V30.8747H66.4189V34.0194H65.4189ZM65.4189 46.5982V43.4535H66.4189V46.5982H65.4189ZM65.4189 52.8877V49.743H66.4189V52.8877H65.4189ZM65.4189 59.1771V56.0324H66.4189V59.1771H65.4189ZM65.4189 62.8941V62.3218H66.4189V63.8941L66.1954 63.8941L65.4189 63.8941L64.6954 63.8941V62.8941H65.4189ZM1.69537 63.8941H1.19537H0.195367L0.195367 62.8941L0.19537 62.3218H1.19537V62.8941H1.69537L1.69537 63.8941ZM7.69537 63.8941H4.69537L4.69537 62.8941H7.69537L7.69537 63.8941ZM13.6954 63.8941H10.6954V62.8941H13.6954V63.8941ZM19.6954 63.8941H16.6954V62.8941H19.6954V63.8941ZM31.6954 63.8941H28.6954V62.8941H31.6954V63.8941ZM37.6954 63.8941H34.6954V62.8941H37.6954V63.8941ZM49.6954 63.8941H46.6954V62.8941H49.6954V63.8941ZM61.6954 63.8941H58.6954V62.8941H61.6954V63.8941ZM0.195367 5.71706L0.195367 8.86176H1.19537L1.19537 5.71706H0.195367ZM0.195368 12.0065L0.195368 15.1512H1.19537L1.19537 12.0065H0.195368ZM0.195368 18.2959L0.195368 21.4406H1.19537L1.19537 18.2959H0.195368ZM0.195368 24.5853L0.195368 27.73H1.19537L1.19537 24.5853H0.195368ZM0.195368 30.8747L0.195369 34.0194H1.19537L1.19537 30.8747H0.195368ZM0.195369 37.1641L0.195369 40.3088H1.19537L1.19537 37.1641H0.195369ZM0.195369 43.4535L0.195369 46.5982H1.19537L1.19537 43.4535H0.195369ZM0.195369 49.743L0.195369 52.8877H1.19537L1.19537 49.743H0.195369ZM0.195369 56.0324L0.19537 59.1771H1.19537L1.19537 56.0324H0.195369Z" fill="white"/>
</svg>
