<svg width="48" height="46" viewBox="0 0 48 46" fill="none" xmlns="http://www.w3.org/2000/svg">
<path fill-rule="evenodd" clip-rule="evenodd" d="M1.39851 1L1.84353 1L1.84353 0H0.398511L0.398511 1L0.398511 2.57373L1.39851 2.57373L1.39851 1ZM4.73356 1L7.62359 1V0H4.73356V1ZM10.5136 1L13.4036 1L13.4036 0H10.5136L10.5136 1ZM16.2937 1L19.1837 1V0H16.2937V1ZM22.0737 1L24.9638 1V2.14756e-06L22.0737 0V1ZM27.8538 1L30.7438 1V2.65287e-06L27.8538 2.40022e-06V1ZM33.6339 1L36.5239 1V3.15818e-06L33.6339 2.90553e-06V1ZM39.4139 1L42.304 1V3.66349e-06L39.4139 3.41084e-06V1ZM45.194 1L46.0951 1V2.57373L47.0951 2.57373V1L46.639 1V4.04247e-06L45.194 3.91614e-06V1ZM31.557 0.545011L31.9897 1.29242L46.0951 25.6563V24.606H47.0951V27.7534H46.0951V26.6757H45.818H39.8357V44.0645H42.304V45.0645H39.8357V45.1904L38.8357 45.1904V25.7435H39.5511V25.6757H44.9508L31.557 2.54088L18.3823 25.297H28.5222L23.9562 17.5317L24.8183 17.0248L29.8272 25.5436L30.2702 26.297H29.3962H23.4138V44.0645L24.9638 44.0645V45.0645L23.4138 45.0645V45.1904L22.4138 45.1904V45.0645H22.0737V44.0645H22.4138V26.297H17.8034L17.7286 26.4262L17.5055 26.297H17.3663V26.2165L16.8632 25.9252L31.1242 1.29242L31.557 0.545011ZM15.5661 1.28951L15.1351 0.556478L14.7041 1.28951L0.994335 24.606H0.398512L0.398512 25.6193L0 26.297H0.398513L0.398513 27.7534H1.39851V26.297H6.67776V42.1654H6.85629V44.0645H4.73356V45.0645H6.85629V45.1904L7.85629 45.1904L7.85629 25.7435H7.67776V25.297H7.17776H1.74804L15.1351 2.52941L21.8346 13.9234L22.6966 13.4166L15.5661 1.28951ZM30.6887 32.3243L30.6874 31.8243L29.6874 31.827L29.6887 32.327L29.6914 33.3278L29.6928 33.8278L30.6928 33.8251L30.6914 33.3251L30.6887 32.3243ZM30.6968 35.3267L30.6955 34.8267L29.6955 34.8294L29.6969 35.3294L29.7023 37.331L29.7036 37.831L30.7036 37.8283L30.7023 37.3283L30.6968 35.3267ZM30.7077 39.3299L30.7063 38.8299L29.7063 38.8326L29.7077 39.3326L29.7131 41.3342L29.7145 41.8342L30.7145 41.8315L30.7131 41.3315L30.7077 39.3299ZM30.7185 43.3331L30.7172 42.8331L29.7172 42.8358L29.7185 43.3358L29.7205 44.0645H27.8538V45.0645H30.7438V44.0645H30.7205L30.7185 43.3331ZM17.1914 31.675L17.1927 32.175L17.1955 33.2008L17.1969 33.7008L16.1969 33.7035L16.1955 33.2035L16.1927 32.1777L16.1914 31.6778L17.1914 31.675ZM17.1997 34.7523L17.2011 35.2523L17.2066 37.3038L17.208 37.8038L16.208 37.8065L16.2066 37.3065L16.2011 35.255L16.1997 34.755L17.1997 34.7523ZM17.2108 38.8553L17.2122 39.3553L17.2177 41.4068L17.2191 41.9068L16.2191 41.9095L16.2177 41.4095L16.2122 39.358L16.2108 38.858L17.2108 38.8553ZM17.2219 42.9583L17.2233 43.4583L17.2249 44.0645H19.1837V45.0645H16.2937V44.9865L16.2274 44.9867L16.2261 44.4867L16.2233 43.461L16.2219 42.961L17.2219 42.9583ZM17.0764 38.8331H18.1273V37.8331H17.0764V38.8331ZM20.2292 38.8331H22.331V37.8331H20.2292V38.8331ZM24.4328 38.8331H26.5347V37.8331H24.4328V38.8331ZM28.6365 38.8331H29.6874V37.8331H28.6365V38.8331ZM46.0951 8.86865V5.72119H47.0951V8.86865H46.0951ZM46.0951 15.1636V12.0161H47.0951V15.1636H46.0951ZM46.0951 21.4585V18.311H47.0951V21.4585H46.0951ZM46.0951 34.0483V30.9009H47.0951V34.0483H46.0951ZM46.0951 40.3433V37.1958H47.0951V40.3433H46.0951ZM45.194 45.0645H46.639L47.0951 45.0645L47.0951 43.4907H46.0951V44.0645H45.194V45.0645ZM1.39851 44.0645H1.84353L1.84353 45.0645H0.398511L0.398511 44.0645L0.398513 43.4907H1.39851V44.0645ZM13.4036 45.0645H10.5136L10.5136 44.0645H13.4036L13.4036 45.0645ZM36.5239 45.0645H33.6339V44.0645H36.5239V45.0645ZM0.398512 5.72119L0.398512 8.86865H1.39851L1.39851 5.72119H0.398512ZM0.398512 12.0161L0.398512 15.1636H1.39851L1.39851 12.0161H0.398512ZM0.398512 18.311L0.398512 21.4585H1.39851L1.39851 18.311H0.398512ZM0.398513 30.9009L0.398513 34.0483H1.39851L1.39851 30.9009H0.398513ZM0.398513 37.1958L0.398513 40.3433H1.39851L1.39851 37.1958H0.398513Z" fill="white"/>
</svg>
